#Comment line ignore any data following # character 
#Hierarchical Translation and Rotation (.htr) file 
[Header]	
#Header keywords are followed by a single value 
FileType HTR		#Single word string
DataType HTRS		#Translation followed by rotation and scale data
FileVersion 1		#integer
NumSegments 64		#integer
NumFrames 3		#integer
DataFrameRate 30		#integer, data frame rate in this file
EulerRotationOrder ZYX
CalibrationUnits mm
RotationUnits Degrees
GlobalAxisofGravity Y
BoneLengthAxis Y
ScaleFactor 1.00
[SegmentNames&Hierarchy]
#CHILD	PARENT
Pinger_Root GLOBAL
Pelvis Pinger_Root
L_Hip Pelvis
R_Hip Pelvis
Rear_Leg01 Pelvis
Spine1 Pelvis
L_Leg01 L_Hip
L_Leg02 L_Leg01
L_Leg03 L_Leg02
L_Foot L_Leg03
L_Toe1_01 L_Foot
L_Toe2_01 L_Foot
L_Toe3_01 L_Foot
planeAlignerLeft L_Foot
L_Toe1_02 L_Toe1_01
L_Toe1_03 L_Toe1_02
L_Toe2_02 L_Toe2_01
L_Toe2_03 L_Toe2_02
L_Toe3_02 L_Toe3_01
L_Toe3_03 L_Toe3_02
planeLockWeightLeft planeAlignerLeft
R_Leg01 R_Hip
R_Leg02 R_Leg01
R_Leg03 R_Leg02
R_Foot R_Leg03
planeAlignerRight R_Foot
R_Toe1_01 R_Foot
R_Toe2_01 R_Foot
R_Toe3_01 R_Foot
planeLockWeightRight planeAlignerRight
R_Toe1_02 R_Toe1_01
R_Toe1_03 R_Toe1_02
R_Toe2_02 R_Toe2_01
R_Toe2_03 R_Toe2_02
R_Toe3_02 R_Toe3_01
R_Toe3_03 R_Toe3_02
Rear_Leg02 Rear_Leg01
Rear_Leg03 Rear_Leg02
Rear_Leg04 Rear_Leg03
Rear_Foot Rear_Leg04
planeAlignerCenter Rear_Foot
Rear_Toe1_01 Rear_Foot
Rear_Toe2_01 Rear_Foot
Rear_Toe3_01 Rear_Foot
planeLockWeightCenter planeAlignerCenter
Rear_Toe1_02 Rear_Toe1_01
Rear_Toe1_03 Rear_Toe1_02
Rear_Toe2_02 Rear_Toe2_01
Rear_Toe2_03 Rear_Toe2_02
Rear_Toe3_02 Rear_Toe3_01
Rear_Toe3_03 Rear_Toe3_02
Back_Bone Spine1
Head Spine1
Motor_Bone Back_Bone
Ping_Mechanism Back_Bone
BN_LookIK Head
bottomMouth Head
L_Mouth01 Head
L_mouthFront Head
mouthGun Head
R_Mouth01 Head
R_mouthFront Head
TopMouth Head
weapon_bone Head
[BasePosition]
#SegmentName Tx, Ty, Tz, Rx, Ry, Rz, BoneLength
Pinger_Root 0.000000 0.000000 0.000000 -90.000000 0.000000 0.000000 10.000000 
Pelvis 0.000000 0.000000 0.000000 0.000000 0.000000 0.000000 10.000000 
L_Hip 0.000000 0.000000 0.000000 0.000000 0.000000 0.000000 10.000000 
R_Hip 0.000000 0.000000 0.000000 0.000000 0.000000 0.000000 10.000000 
Rear_Leg01 0.000000 0.000000 0.000000 0.000000 0.000000 0.000000 10.000000 
Spine1 0.000000 0.000000 0.000000 0.000000 0.000000 0.000000 10.000000 
L_Leg01 0.000000 0.000000 0.000000 0.000000 0.000000 0.000000 10.000000 
L_Leg02 0.000000 0.000000 0.000000 0.000000 0.000000 0.000000 10.000000 
L_Leg03 0.000000 0.000000 0.000000 0.000000 0.000000 0.000000 10.000000 
L_Foot 0.000000 0.000000 0.000000 0.000000 0.000000 0.000000 10.000000 
L_Toe1_01 0.000000 0.000000 0.000000 0.000000 0.000000 0.000000 10.000000 
L_Toe2_01 0.000000 0.000000 0.000000 0.000000 0.000000 0.000000 10.000000 
L_Toe3_01 0.000000 0.000000 0.000000 0.000000 0.000000 0.000000 10.000000 
planeAlignerLeft 0.000000 0.000000 0.000000 0.000000 0.000000 0.000000 10.000000 
L_Toe1_02 0.000000 0.000000 0.000000 0.000000 0.000000 0.000000 10.000000 
L_Toe1_03 0.000000 0.000000 0.000000 0.000000 0.000000 0.000000 10.000000 
L_Toe2_02 0.000000 0.000000 0.000000 0.000000 0.000000 0.000000 10.000000 
L_Toe2_03 0.000000 0.000000 0.000000 0.000000 0.000000 0.000000 10.000000 
L_Toe3_02 0.000000 0.000000 0.000000 0.000000 0.000000 0.000000 10.000000 
L_Toe3_03 0.000000 0.000000 0.000000 0.000000 0.000000 0.000000 10.000000 
planeLockWeightLeft 0.000000 0.000000 0.000000 0.000000 0.000000 0.000000 10.000000 
R_Leg01 0.000000 0.000000 0.000000 0.000000 0.000000 0.000000 10.000000 
R_Leg02 0.000000 0.000000 0.000000 0.000000 0.000000 0.000000 10.000000 
R_Leg03 0.000000 0.000000 0.000000 0.000000 0.000000 0.000000 10.000000 
R_Foot 0.000000 0.000000 0.000000 0.000000 0.000000 0.000000 10.000000 
planeAlignerRight 0.000000 0.000000 0.000000 0.000000 0.000000 0.000000 10.000000 
R_Toe1_01 0.000000 0.000000 0.000000 0.000000 0.000000 0.000000 10.000000 
R_Toe2_01 0.000000 0.000000 0.000000 0.000000 0.000000 0.000000 10.000000 
R_Toe3_01 0.000000 0.000000 0.000000 0.000000 0.000000 0.000000 10.000000 
planeLockWeightRight 0.000000 0.000000 0.000000 0.000000 0.000000 0.000000 10.000000 
R_Toe1_02 0.000000 0.000000 0.000000 0.000000 0.000000 0.000000 10.000000 
R_Toe1_03 0.000000 0.000000 0.000000 0.000000 0.000000 0.000000 10.000000 
R_Toe2_02 0.000000 0.000000 0.000000 0.000000 0.000000 0.000000 10.000000 
R_Toe2_03 0.000000 0.000000 0.000000 0.000000 0.000000 0.000000 10.000000 
R_Toe3_02 0.000000 0.000000 0.000000 0.000000 0.000000 0.000000 10.000000 
R_Toe3_03 0.000000 0.000000 0.000000 0.000000 0.000000 0.000000 10.000000 
Rear_Leg02 0.000000 0.000000 0.000000 0.000000 0.000000 0.000000 10.000000 
Rear_Leg03 0.000000 0.000000 0.000000 0.000000 0.000000 0.000000 10.000000 
Rear_Leg04 0.000000 0.000000 0.000000 0.000000 0.000000 0.000000 10.000000 
Rear_Foot 0.000000 0.000000 0.000000 0.000000 0.000000 0.000000 10.000000 
planeAlignerCenter 0.000000 0.000000 0.000000 0.000000 0.000000 0.000000 10.000000 
Rear_Toe1_01 0.000000 0.000000 0.000000 0.000000 0.000000 0.000000 10.000000 
Rear_Toe2_01 0.000000 0.000000 0.000000 0.000000 0.000000 0.000000 10.000000 
Rear_Toe3_01 0.000000 0.000000 0.000000 0.000000 0.000000 0.000000 10.000000 
planeLockWeightCenter 0.000000 0.000000 0.000000 0.000000 0.000000 0.000000 10.000000 
Rear_Toe1_02 0.000000 0.000000 0.000000 0.000000 0.000000 0.000000 10.000000 
Rear_Toe1_03 0.000000 0.000000 0.000000 0.000000 0.000000 0.000000 10.000000 
Rear_Toe2_02 0.000000 0.000000 0.000000 0.000000 0.000000 0.000000 10.000000 
Rear_Toe2_03 0.000000 0.000000 0.000000 0.000000 0.000000 0.000000 10.000000 
Rear_Toe3_02 0.000000 0.000000 0.000000 0.000000 0.000000 0.000000 10.000000 
Rear_Toe3_03 0.000000 0.000000 0.000000 0.000000 0.000000 0.000000 10.000000 
Back_Bone 0.000000 0.000000 0.000000 0.000000 0.000000 0.000000 10.000000 
Head 0.000000 0.000000 0.000000 0.000000 0.000000 0.000000 10.000000 
Motor_Bone 0.000000 0.000000 0.000000 0.000000 0.000000 0.000000 10.000000 
Ping_Mechanism 0.000000 0.000000 0.000000 0.000000 0.000000 0.000000 10.000000 
BN_LookIK 0.000000 0.000000 0.000000 0.000000 0.000000 0.000000 10.000000 
bottomMouth 0.000000 0.000000 0.000000 0.000000 0.000000 0.000000 10.000000 
L_Mouth01 0.000000 0.000000 0.000000 0.000000 0.000000 0.000000 10.000000 
L_mouthFront 0.000000 0.000000 0.000000 0.000000 0.000000 0.000000 10.000000 
mouthGun 0.000000 0.000000 0.000000 0.000000 0.000000 0.000000 10.000000 
R_Mouth01 0.000000 0.000000 0.000000 0.000000 0.000000 0.000000 10.000000 
R_mouthFront 0.000000 0.000000 0.000000 0.000000 0.000000 0.000000 10.000000 
TopMouth 0.000000 0.000000 0.000000 0.000000 0.000000 0.000000 10.000000 
weapon_bone 0.000000 0.000000 0.000000 0.000000 0.000000 0.000000 10.000000 
#Beginning of Data. Separated by tabs
#Fr	Tx	Ty	Tz	Rx	Ry	Rz	SF
[Pinger_Root]
10 0.000000 0.000000 0.000000 -0.000075 -0.000000 -0.000020 0.000000
11 0.000000 0.000000 0.000000 -0.000075 -0.000000 -0.000020 0.000000
12 0.000000 0.000000 0.000000 -0.000075 -0.000000 -0.000020 0.000000
[Pelvis]
10 372.911255 1108.089111 4512.371094 115.976585 -87.368347 -108.273918 4661.375000
11 366.874390 1162.438110 4546.960449 110.851952 -86.730316 -102.699303 4707.516113
12 334.464600 1247.348389 4597.064941 98.000961 -86.301010 -89.875389 4775.013184
[L_Hip]
10 5.766392 125.831482 872.656799 178.273697 -80.858253 91.051910 881.701050
11 5.766392 125.831482 872.656799 -178.253311 -81.787758 87.381340 881.701050
12 5.766392 125.831482 872.656799 -178.253342 -81.787636 87.381248 881.701050
[R_Hip]
10 5.765438 125.836372 -872.654907 3.340970 81.147850 92.284683 881.699829
11 5.765438 125.836372 -872.654907 -1.746690 81.787712 87.381248 881.699829
12 5.765438 125.836372 -872.654907 -1.746478 81.787666 87.381119 881.699829
[Rear_Leg01]
10 -192.298416 -925.602966 -0.001907 175.520035 -13.119016 -128.376984 945.367432
11 -192.298416 -925.602966 -0.001907 174.060059 -13.285062 -118.738731 945.367432
12 -192.298416 -925.602966 -0.001907 175.496979 -13.432870 -116.395714 945.367432
[Spine1]
10 290.604584 5.007505 0.000477 -5.936131 3.747391 21.611708 290.647736
11 290.604584 5.007505 0.000477 -6.166004 3.850667 22.172159 290.647736
12 290.604584 5.007505 0.000477 -6.133617 3.256548 22.817656 290.647736
[L_Leg01]
10 761.932007 -0.002384 -0.069261 76.122032 -37.111382 -66.652702 761.932068
11 761.932007 -0.002384 -0.069261 78.358521 -37.703007 -68.561493 761.932068
12 761.932007 -0.002384 -0.069261 78.709099 -37.880318 -69.774925 761.932068
[L_Leg02]
10 1441.140503 -0.000954 -0.000715 -1.478871 0.425010 -94.308174 1441.140503
11 1441.140503 -0.000954 -0.000715 -1.490862 0.463620 -95.081871 1441.140503
12 1441.140503 -0.000954 -0.000715 -1.486953 0.506258 -96.694473 1441.140503
[L_Leg03]
10 1686.963989 -0.000715 -0.000954 0.019230 -0.005974 104.517113 1686.963989
11 1686.963989 -0.000715 -0.000954 0.024314 -0.008076 103.118454 1686.963989
12 1686.963989 -0.000715 -0.000954 0.029448 -0.010052 101.719810 1686.963989
[L_Foot]
10 3041.570068 -30.715107 11.297464 -14.412313 13.393786 32.580864 3041.746094
11 3041.570068 -30.715107 11.297464 -14.931904 13.578235 33.584644 3041.746094
12 3041.570068 -30.715107 11.297464 -14.636549 13.929621 36.083725 3041.746094
[L_Toe1_01]
10 -188.216690 -224.732346 -21.137953 89.823631 -3.481768 -165.720200 293.899567
11 -188.216690 -224.732346 -21.137953 89.699348 -3.374833 -165.449051 293.899567
12 -188.216690 -224.732346 -21.137953 89.708809 -3.377568 -165.648560 293.899567
[L_Toe2_01]
10 200.746536 -219.926590 148.838394 -77.926201 -14.818278 -44.442158 332.896027
11 200.746536 -219.926590 148.838394 -77.584976 -14.474025 -44.187046 332.896027
12 200.746536 -219.926590 148.838394 -77.611015 -14.498570 -44.072369 332.896027
[L_Toe3_01]
10 188.832520 -219.859131 -191.078659 -104.960243 14.718289 -45.533382 347.140900
11 188.832520 -219.859131 -191.078659 -105.094337 14.710049 -44.951870 347.140900
12 188.832520 -219.859131 -191.078659 -105.062920 14.742994 -44.841377 347.140900
[planeAlignerLeft]
10 0.812531 -811.448792 -0.314951 0.000000 -90.000000 -90.001900 811.449280
11 0.812531 -811.448792 -0.314951 0.000000 -90.000000 -90.001900 811.449280
12 0.812531 -811.448792 -0.314951 0.000000 -90.000000 -90.001900 811.449280
[L_Toe1_02]
10 413.761139 0.000477 0.000000 0.001411 -22.557594 0.001411 413.761139
11 413.761139 0.000477 0.000000 0.001412 -22.459679 0.001412 413.761139
12 413.761139 0.000477 0.000000 0.001413 -22.361755 0.001413 413.761139
[L_Toe1_03]
10 464.317322 0.000358 -0.000089 0.014150 80.484688 0.014150 464.317322
11 464.317322 0.000358 -0.000089 0.015052 81.056046 0.015052 464.317322
12 464.317322 0.000358 -0.000089 0.015359 81.235252 0.015359 464.317322
[L_Toe2_02]
10 342.235809 -0.000477 0.000238 0.001181 -77.560463 0.001181 342.235809
11 342.235809 -0.000477 0.000238 0.001180 -77.741257 0.001180 342.235809
12 342.235809 -0.000477 0.000238 0.001180 -77.844360 0.001180 342.235809
[L_Toe2_03]
10 420.210846 -0.000715 0.000000 -179.996460 77.561417 -179.992950 420.210846
11 420.210846 -0.000715 0.000000 -179.996613 77.155922 -179.993103 420.210846
12 420.210846 -0.000715 0.000000 -179.996674 77.035782 -179.993149 420.210846
[L_Toe3_02]
10 329.270111 0.000954 0.000000 0.001177 -81.871002 0.001177 329.270111
11 329.270111 0.000954 0.000000 0.001177 -81.933212 0.001177 329.270111
12 329.270111 0.000954 0.000000 0.001176 -81.995430 0.001176 329.270111
[L_Toe3_03]
10 439.137451 -0.001907 0.000954 -179.997986 72.547142 -179.994446 439.137451
11 439.137451 -0.001907 0.000954 -179.998001 72.476639 -179.994461 439.137451
12 439.137451 -0.001907 0.000954 -179.998016 72.406113 -179.994476 439.137451
[planeLockWeightLeft]
10 -0.000954 0.000238 -0.000305 -0.011826 -0.004376 0.005620 0.001029
11 -0.000954 0.000238 -0.000305 -0.011826 -0.004376 0.005620 0.001029
12 -0.000954 0.000238 -0.000305 -0.011826 -0.004376 0.005620 0.001029
[R_Leg01]
10 761.455627 -0.001907 -0.000358 127.330711 -40.747326 48.963924 761.455688
11 761.455627 -0.001907 -0.000358 125.662193 -38.706127 51.823803 761.455688
12 761.455627 -0.001907 -0.000358 123.065056 -34.637611 54.261131 761.455688
[R_Leg02]
10 1441.140625 0.000000 -0.000238 -0.158877 -0.002130 -136.378265 1441.140625
11 1441.140625 0.000000 -0.000238 -0.108821 -0.020026 -133.933197 1441.140625
12 1441.140625 0.000000 -0.000238 -0.072935 -0.044626 -130.895447 1441.140625
[R_Leg03]
10 1686.963989 0.000954 0.001431 -0.046050 0.010069 97.603271 1686.963989
11 1686.963989 0.000954 0.001431 -0.049392 0.013483 96.891449 1686.963989
12 1686.963989 0.000954 0.001431 -0.046031 0.010156 97.819992 1686.963989
[R_Foot]
10 3041.560059 -30.531288 -11.204481 -6.842525 -22.653292 79.238503 3041.734131
11 3041.560059 -30.531288 -11.204481 -6.737000 -22.664097 79.696281 3041.734131
12 3041.560059 -30.531288 -11.204481 -6.158790 -22.804165 79.624397 3041.734131
[planeAlignerRight]
10 -0.635147 -812.270569 -0.364304 0.000000 -89.960434 -90.005180 812.270874
11 -0.635147 -812.270569 -0.364304 0.000000 -89.960434 -90.005180 812.270874
12 -0.635147 -812.270569 -0.364304 0.000000 -89.960434 -90.005180 812.270874
[R_Toe1_01]
10 -188.383347 -224.864899 21.052242 73.042526 -2.375780 -178.215836 294.101532
11 -188.383347 -224.864899 21.052242 73.046165 -2.605980 -178.989685 294.101532
12 -188.383347 -224.864899 21.052242 73.052864 -2.836108 -179.763687 294.101532
[R_Toe2_01]
10 200.637817 -220.002121 -148.787384 -98.067413 30.753275 -53.574318 332.857574
11 200.637817 -220.002121 -148.787384 -97.889633 30.777182 -52.723316 332.857574
12 200.637817 -220.002121 -148.787384 -97.530640 30.856787 -52.027390 332.857574
[R_Toe3_01]
10 188.606735 -220.092957 191.126343 -67.874847 -9.015289 -68.491516 347.192566
11 188.606735 -220.092957 191.126343 -67.640793 -9.312230 -67.732628 347.192566
12 188.606735 -220.092957 191.126343 -67.599800 -9.602377 -67.117561 347.192566
[planeLockWeightRight]
10 -0.000477 0.000000 0.000000 -0.011823 -0.004379 -0.000027 0.000477
11 -0.000477 0.000000 0.000000 -0.011823 -0.004379 -0.000027 0.000477
12 -0.000477 0.000000 0.000000 -0.011823 -0.004379 -0.000027 0.000477
[R_Toe1_02]
10 413.762085 0.000477 -0.000119 0.001401 -23.742014 0.001401 413.762085
11 413.762085 0.000477 -0.000119 0.001402 -23.615122 0.001402 413.762085
12 413.762085 0.000477 -0.000119 0.001403 -23.488230 0.001403 413.762085
[R_Toe1_03]
10 464.317810 0.000000 0.001088 0.009122 75.214905 0.009122 464.317810
11 464.317810 0.000000 0.001088 0.009623 75.990311 0.009623 464.317810
12 464.317810 0.000000 0.001088 0.010063 76.604820 0.010063 464.317810
[R_Toe2_02]
10 342.234741 -0.000954 0.000238 0.001191 -70.512314 0.001191 342.234741
11 342.234741 -0.000954 0.000238 0.001190 -70.968231 0.001190 342.234741
12 342.234741 -0.000954 0.000238 0.001189 -71.282982 0.001189 342.234741
[R_Toe2_03]
10 420.210846 0.000715 -0.000268 0.014741 80.865395 0.014741 420.210846
11 420.210846 0.000715 -0.000268 0.016600 81.891502 0.016600 420.210846
12 420.210846 0.000715 -0.000268 0.018516 82.731720 0.018516 420.210846
[R_Toe3_02]
10 329.270355 -0.000477 -0.000954 0.001181 -77.394348 0.001181 329.270355
11 329.270355 -0.000477 -0.000954 0.001180 -77.777779 0.001180 329.270355
12 329.270355 -0.000477 -0.000954 0.001180 -78.161110 0.001180 329.270355
[R_Toe3_03]
10 439.137939 0.000238 0.001431 -179.947205 88.792610 -179.943710 439.137939
11 439.137939 0.000238 0.001431 -179.973389 87.677803 -179.969879 439.137939
12 439.137939 0.000238 0.001431 -179.981384 86.765953 -179.977890 439.137939
[Rear_Leg02]
10 1162.777710 -0.029802 0.005960 5.889319 -30.153803 -92.919365 1162.777710
11 1162.777710 -0.029802 0.005960 9.144961 -30.147823 -87.283157 1162.777710
12 1162.777710 -0.029802 0.005960 13.697550 -25.515430 -93.701508 1162.777710
[Rear_Leg03]
10 607.192505 -0.013351 -0.073195 0.006476 -0.002106 64.239876 607.192505
11 607.192505 -0.013351 -0.073195 0.010580 -0.004920 66.236313 607.192505
12 607.192505 -0.013351 -0.073195 0.010411 -0.005270 70.051743 607.192505
[Rear_Leg04]
10 995.874512 -0.020504 -0.011921 -0.040503 -0.015200 58.131790 995.874573
11 995.874512 -0.020504 -0.011921 -0.043565 -0.018002 62.161079 995.874573
12 995.874512 -0.020504 -0.011921 -0.040713 -0.017647 70.493233 995.874573
[Rear_Foot]
10 3096.176270 -0.067472 -0.041425 -131.698303 52.931995 51.410172 3096.176270
11 3096.176270 -0.067472 -0.041425 -126.390099 53.052082 49.356419 3096.176270
12 3096.176270 -0.067472 -0.041425 -118.509682 57.472847 45.598854 3096.176270
[planeAlignerCenter]
10 0.350077 0.966311 -838.790894 0.000009 0.000003 -179.999985 838.791565
11 0.350077 0.966311 -838.790894 0.000009 0.000003 -179.999985 838.791565
12 0.350077 0.966311 -838.790894 0.000009 0.000003 -179.999985 838.791565
[Rear_Toe1_01]
10 0.653352 83.966492 -371.173737 3.297127 35.978138 95.529022 380.553192
11 0.653352 83.966492 -371.173737 3.877090 39.239655 96.046539 380.553192
12 0.653352 83.966492 -371.173737 4.083991 40.605602 96.192818 380.553192
[Rear_Toe2_01]
10 178.200760 -294.826019 -362.060547 -2.390353 38.249123 -67.161003 499.765686
11 178.200760 -294.826019 -362.060547 -2.040609 43.698280 -67.885338 499.765686
12 178.200760 -294.826019 -362.060547 -1.892101 46.090015 -68.044525 499.765686
[Rear_Toe3_01]
10 -153.359680 -308.780914 -362.060852 1.379913 37.183464 -120.413971 499.952881
11 -153.359680 -308.780914 -362.060852 0.330783 40.954014 -120.857162 499.952881
12 -153.359680 -308.780914 -362.060852 -0.197258 42.495667 -121.102180 499.952881
[planeLockWeightCenter]
10 -0.000062 0.000238 0.000000 -0.011814 -0.004373 -0.000015 0.000246
11 -0.000062 0.000238 0.000000 -0.011814 -0.004373 -0.000015 0.000246
12 -0.000062 0.000238 0.000000 -0.011814 -0.004373 -0.000015 0.000246
[Rear_Toe1_02]
10 379.707825 0.194073 0.000477 -0.003293 -0.077468 0.011552 379.707855
11 379.707825 0.194073 0.000477 -0.003293 -0.077468 0.011552 379.707855
12 379.707825 0.194073 0.000477 -0.003293 -0.077468 0.011552 379.707855
[Rear_Toe1_03]
10 500.129700 0.165701 0.000119 -0.003291 -0.032962 0.021441 500.129761
11 500.129700 0.165701 0.000119 -0.003291 -0.032962 0.021441 500.129761
12 500.129700 0.165701 0.000119 -0.003291 -0.032962 0.021441 500.129761
[Rear_Toe2_02]
10 340.494507 0.000238 -0.000954 0.001177 -81.632034 0.001177 340.494507
11 340.494507 0.000238 -0.000954 0.001180 -78.148399 0.001180 340.494507
12 340.494507 0.000238 -0.000954 0.001182 -76.356827 0.001182 340.494507
[Rear_Toe2_03]
10 433.103577 0.000000 0.000238 179.863358 89.015038 179.863358 433.103546
11 433.103577 0.000000 0.000238 0.022242 83.950584 0.022242 433.103546
12 433.103577 0.000000 0.000238 0.014296 80.581932 0.014296 433.103546
[Rear_Toe3_02]
10 340.494141 -0.000358 -0.000477 0.001190 -70.943962 0.001190 340.494171
11 340.494141 -0.000358 -0.000477 0.007520 -65.096352 -0.008697 340.494171
12 340.494141 -0.000358 -0.000477 -0.002393 -62.238045 -0.002393 340.494171
[Rear_Toe3_03]
10 433.103577 0.001431 -0.000238 0.007302 71.501633 0.007302 433.103546
11 433.103577 0.001431 -0.000238 -0.000654 62.895851 -0.004251 433.103546
12 433.103577 0.001431 -0.000238 -0.000338 59.022057 -0.003966 433.103546
[Back_Bone]
10 1312.175781 -701.934692 0.000954 -2.461287 1.344172 -84.279083 1488.125488
11 1312.175781 -701.934692 0.000954 -2.876993 1.429053 -84.242424 1488.125488
12 1312.175781 -701.934692 0.000954 -3.143429 1.269949 -84.526428 1488.125488
[Head]
10 1406.159424 809.709290 0.001431 -5.379184 -1.928385 22.801224 1622.625488
11 1406.159424 809.709290 0.001431 -5.489465 -2.063622 23.240591 1622.625488
12 1406.159424 809.709290 0.001431 -5.481492 -1.907802 23.199530 1622.625488
[Motor_Bone]
10 1158.364380 -417.834747 0.000477 -2.614632 -0.012305 -105.995148 1231.419434
11 1158.364380 -417.834747 0.000477 -2.687937 0.131930 -105.851517 1231.419434
12 1158.364380 -417.834747 0.000477 -5.513653 1.191246 -104.796577 1231.419434
[Ping_Mechanism]
10 1203.961304 -427.579926 -5.073090 0.000103 -0.000053 82.120995 1277.643555
11 1200.829712 -426.000366 -4.635731 0.000103 -0.000053 82.120995 1274.162476
12 1198.327881 -425.077484 -1.007644 0.000103 -0.000053 82.120995 1271.488037
[BN_LookIK]
10 193.241119 1380.371704 -0.002861 0.000000 89.965736 -31.038179 1393.832153
11 193.241119 1380.371704 -0.002861 0.000000 89.965736 -31.038179 1393.832153
12 193.241119 1380.371704 -0.002861 0.000000 89.965736 -31.038179 1393.832153
[bottomMouth]
10 -435.092926 615.759399 -0.000954 -0.000022 0.000016 73.527184 753.966492
11 -435.092926 615.759399 -0.000954 -0.000022 0.000016 73.527184 753.966492
12 -435.092926 615.759399 -0.000954 -0.000022 0.000016 73.527184 753.966492
[L_Mouth01]
10 554.440979 7.658243 838.222046 150.204178 23.759130 109.605339 1005.027161
11 554.440979 7.658243 838.222046 150.204178 23.759130 109.605339 1005.027161
12 554.440979 7.658243 838.222046 150.204178 23.759130 109.605339 1005.027161
[L_mouthFront]
10 551.629089 934.514771 339.150421 0.000081 2.804060 79.119301 1136.941284
11 551.629089 934.514771 339.150421 0.000081 2.804060 79.119301 1136.941284
12 551.629089 934.514771 339.150421 0.000081 2.804060 79.119301 1136.941284
[mouthGun]
10 55.332661 1627.420898 0.000000 0.000023 0.000009 -11.038128 1628.361328
11 55.332661 1627.420898 0.000000 0.000023 0.000009 -11.038128 1628.361328
12 55.332661 1627.420898 0.000000 0.000023 0.000009 -11.038128 1628.361328
[R_Mouth01]
10 554.442383 7.659197 -838.223938 29.795891 -23.759109 109.605331 1005.029541
11 554.442383 7.659197 -838.223938 29.795891 -23.759109 109.605331 1005.029541
12 554.442383 7.659197 -838.223938 29.795891 -23.759109 109.605331 1005.029541
[R_mouthFront]
10 551.629089 934.514282 -339.151367 0.000029 -2.803930 79.119133 1136.941162
11 551.629089 934.514282 -339.151367 0.000029 -2.803930 79.119133 1136.941162
12 551.629089 934.514282 -339.151367 0.000029 -2.803930 79.119133 1136.941162
[TopMouth]
10 461.269867 -56.106091 -0.008583 -0.000059 -0.000268 92.025169 464.669525
11 461.269867 -56.106091 -0.008583 -0.000059 -0.000268 92.025169 464.669525
12 461.269867 -56.106091 -0.008583 -0.000059 -0.000268 92.025169 464.669525
[weapon_bone]
10 -987.239868 1448.372803 0.001431 0.000000 89.965736 -31.038221 1752.833740
11 -987.239868 1448.372803 0.001431 0.000000 89.965736 -31.038221 1752.833740
12 -987.239868 1448.372803 0.001431 0.000000 89.965736 -31.038221 1752.833740
